<?xml version="1.0" encoding="utf-8"?>
<!-- Generator: Adobe Illustrator 25.2.0, SVG Export Plug-In . SVG Version: 6.00 Build 0)  -->
<svg version="1.1" id="Слой_1" xmlns="http://www.w3.org/2000/svg" xmlns:xlink="http://www.w3.org/1999/xlink" x="0px" y="0px"
	 viewBox="0 0 239.73 500.12" style="enable-background:new 0 0 239.73 500.12;" xml:space="preserve">
<g>
	<g>
		<path d="M238.27,52.37c0,51.9,0,103.8,0,155.7c0,51.64,0,103.27,0,154.91c0,29.13,0,58.26,0,87.39c0,0.58,0.9,0.58,0.9,0
			c0-51.9,0-103.8,0-155.7c0-51.64,0-103.27,0-154.91c0-29.13,0-58.26,0-87.39C239.17,51.79,238.27,51.79,238.27,52.37L238.27,52.37
			z"/>
	</g>
</g>
<g>
	<g>
		<path d="M11.14,499c25.86-0.02,51.72-0.05,77.59-0.07c25.78-0.02,51.56-0.05,77.34-0.07c14.55-0.01,29.11-0.03,43.66-0.04
			c0.58,0,0.58-0.9,0-0.9c-25.86,0.02-51.72,0.05-77.59,0.07c-25.78,0.02-51.56,0.05-77.34,0.07c-14.55,0.01-29.11,0.03-43.66,0.04
			C10.57,498.1,10.56,499,11.14,499L11.14,499z"/>
	</g>
</g>
<g>
	<g>
		<path d="M10.85,2.03c25.86-0.02,51.72-0.05,77.59-0.07c25.78-0.02,51.56-0.05,77.34-0.07c14.55-0.01,29.11-0.03,43.66-0.04
			c0.58,0,0.58-0.9,0-0.9C183.57,0.97,157.71,1,131.85,1.02c-25.78,0.02-51.56,0.05-77.34,0.07C39.96,1.1,25.41,1.12,10.85,1.13
			C10.28,1.13,10.27,2.03,10.85,2.03L10.85,2.03z"/>
	</g>
</g>
</svg>
